<?xml version="1.0" encoding="UTF-8"?>
<svg xmlns="http://www.w3.org/2000/svg" version="1.1" viewBox="0 0 500 500">
  <!-- Generator: Adobe Illustrator 29.5.1, SVG Export Plug-In . SVG Version: 2.1.0 Build 141)  -->
  <defs>
    <style>
      .st0, .st1, .st2, .st3, .st4, .st5, .st6, .st7, .st8 {
        isolation: isolate;
      }

      .st0, .st9, .st10, .st7 {
        opacity: .2;
      }

      .st1 {
        opacity: .9;
      }

      .st11 {
        fill: #263238;
      }

      .st12, .st13, .st14, .st15, .st10, .st16, .st17 {
        fill: none;
      }

      .st12, .st15 {
        stroke-miterlimit: 10;
      }

      .st12, .st16 {
        stroke-width: .75px;
      }

      .st12, .st16, .st17 {
        stroke: #e0e0e0;
      }

      .st18 {
        fill: #f0f0f0;
      }

      .st19, .st13, .st3, .st8 {
        opacity: .3;
      }

      .st20 {
        fill: #ff8271;
      }

      .st21, .st22, .st2, .st4, .st23, .st24, .st25, .st6 {
        fill: #fff;
      }

      .st22, .st4, .st5, .st26 {
        opacity: .5;
      }

      .st27 {
        fill: #e0e0e0;
      }

      .st13 {
        stroke-width: .25px;
      }

      .st13, .st14, .st10, .st16, .st17 {
        stroke-linecap: round;
        stroke-linejoin: round;
      }

      .st13, .st15, .st10 {
        stroke: #000;
      }

      .st14 {
        stroke: #407bff;
      }

      .st14, .st15, .st10, .st17 {
        stroke-width: .5px;
      }

      .st28 {
        fill: #a24e3f;
      }

      .st2, .st25, .st29 {
        opacity: .7;
      }

      .st3, .st30, .st7 {
        fill: #407bff;
      }

      .st23 {
        opacity: .8;
      }

      .st24 {
        opacity: .4;
      }

      .st15 {
        opacity: .1;
      }

      .st31 {
        fill: #e7e7e7;
      }

      .st32 {
        fill: #ebebeb;
      }

      .st33 {
        display: none;
      }

      .st34 {
        fill: #fdbbb5;
      }

      .st35 {
        fill: #f5f5f5;
      }

      .st36 {
        fill: #ffb463;
      }

      .st6 {
        opacity: .6;
      }
    </style>
  </defs>
  <g id="Background_complete">
    <rect class="st18" x="279.41" y="118.99" width="39.76" height="10.23"/>
    <rect class="st27" x="105.07" y="43.17" width="39.76" height="10.23"/>
    <g>
      <g>
        <rect class="st27" x="315.32" y="48.5" width="93.2" height="130.84"/>
        <rect class="st21" x="319.89" y="53.1" width="84.06" height="120.78"/>
      </g>
      <rect class="st32" x="338.62" y="76.02" width="48.25" height="74.94"/>
      <path class="st21" d="M358.53,77.05c-3.3,4.2-6.85,8.41-8.39,13.63-1.45,4.93-1.09,10.49.89,15.22,1.94,4.62,5.53,8.34,10.33,9.95,4.49,1.5,9.77,1.04,13.58-1.9,3.89-3,5.89-8.77,2.57-12.94-2.81-3.53-7.93-4.33-12.12-3.47-5.05,1.03-9.48,4.24-12.6,8.26-3.51,4.53-5.29,10.11-6.01,15.74-.38,3-.74,6.35.05,9.3.74,2.76,2.77,4.73,5.46,5.6,6.26,2.02,12.1-2.24,18.33-1.67-.41-.41-.82-.82-1.24-1.24-.02,5.72-.04,11.44-.06,17.16,0,1.59,2.47,1.59,2.47,0,.02-5.72.04-11.44.06-17.16,0-.71-.57-1.17-1.24-1.24-5.16-.47-9.84,2.42-14.95,2.22-1.85-.07-3.83-.56-5.16-1.93-1.63-1.68-1.68-4.22-1.62-6.41.25-9.5,3.61-19.81,12.48-24.57,3.48-1.87,7.86-2.73,11.58-1.03,1.66.76,3.09,2.04,3.59,3.84.59,2.12-.23,4.42-1.58,6.08-2.6,3.2-7.05,4.24-10.99,3.48-4.26-.82-7.72-3.48-9.83-7.24-2.4-4.29-3.05-9.67-1.91-14.44,1.25-5.21,4.77-9.38,8.01-13.5.97-1.24-.76-3-1.75-1.75h0Z"/>
      <polygon class="st18" points="321.8 173.87 321.8 55.86 403.95 55.86 403.95 53.1 319.89 53.1 319.89 173.87 321.8 173.87"/>
      <rect class="st22" x="329.52" y="65.69" width="38.94" height="38.94" rx="1.03" ry="1.03"/>
    </g>
    <g>
      <g>
        <g>
          <path class="st27" d="M443.92,307.24h-180.75c-3.23,0-5.86-2.63-5.86-5.86V38.1c0-3.23,2.63-5.86,5.86-5.86h180.75c3.23,0,5.86,2.63,5.86,5.86v263.27c0,3.23-2.63,5.86-5.86,5.86ZM263.17,32.49c-3.09,0-5.61,2.52-5.61,5.61v263.27c0,3.09,2.52,5.61,5.61,5.61h180.75c3.09,0,5.61-2.52,5.61-5.61V38.1c0-3.09-2.52-5.61-5.61-5.61h-180.75Z"/>
          <path class="st27" d="M235.49,307.24H54.75c-3.23,0-5.86-2.63-5.86-5.86V38.1c0-3.23,2.63-5.86,5.86-5.86h180.75c3.23,0,5.86,2.63,5.86,5.86v263.27c0,3.23-2.63,5.86-5.86,5.86ZM54.75,32.49c-3.09,0-5.61,2.52-5.61,5.61v263.27c0,3.09,2.52,5.61,5.61,5.61h180.75c3.09,0,5.61-2.52,5.61-5.61V38.1c0-3.09-2.52-5.61-5.61-5.61H54.75Z"/>
        </g>
        <rect class="st27" x="0" y="368.3" width="500" height=".25"/>
      </g>
      <rect class="st27" x="51.67" y="382.57" width="16.06" height=".25"/>
      <rect class="st27" x="170.35" y="379.86" width="53.53" height=".25"/>
      <rect class="st27" x="68.73" y="391.86" width="36.25" height=".25"/>
      <rect class="st27" x="378.35" y="379.73" width="43.19" height=".25"/>
      <rect class="st27" x="430.45" y="379.73" width="6.33" height=".25"/>
      <rect class="st27" x="316.21" y="385.96" width="53.89" height=".25"/>
    </g>
    <g>
      <g>
        <path class="st31" d="M462.63,337.4c2.26-2.88,6.62-4.8,11.41-5.73-.38,1.42-.09,2.73.72,3.05.9.36,2.11-.65,2.71-2.24.17-.45.26-.9.3-1.32,4.83-.41,9.66.17,12.88,1.77,0,0-3.15,2.94-6.73,10.69-.11,0-.22,0-.33,0-2.31.02-4.18,1.18-4.16,2.58,0,1.02,1.02,1.89,2.47,2.28-.19.5-.38,1-.56,1.52-3.4,9.54-12.48,2.64-12.4-3.89,0,0-11.34-2.26-6.28-8.71Z"/>
        <g>
          <path class="st31" d="M451.44,325.09c-2.78-3.11-7.89-4.96-13.42-5.65.53,1.59.3,3.1-.6,3.53-1,.48-2.46-.57-3.25-2.35-.22-.5-.36-1-.43-1.48-5.53-.09-11,.94-14.55,3.02,0,0,3.81,3.11,8.44,11.66.12-.01.25-.03.38-.03,2.64-.15,4.85,1.02,4.93,2.62.06,1.17-1.03,2.24-2.65,2.79.25.55.5,1.11.75,1.69,4.57,10.61,14.42,2.05,13.86-5.39,0,0,12.76-3.45,6.53-10.42Z"/>
          <path class="st32" d="M444.69,322.76c1.18-5.97,6.13-12.19,12.43-17.3.49,2.36,1.86,4.05,3.27,3.88,1.58-.19,2.61-2.6,2.3-5.39-.09-.79-.28-1.51-.53-2.15,6.74-4.38,14.19-7.33,20.06-7.53,0,0-2.44,6.77-1.98,20.86-.16.08-.33.16-.49.25-3.35,1.85-5.22,5-4.18,7.03.76,1.49,2.87,1.96,5.26,1.39.09.87.18,1.75.3,2.66,2.02,16.58-16.26,13.65-20.92,4.07,0,0-18.17,5.61-15.53-7.76Z"/>
          <path class="st12" d="M457.86,360.58c-3.04-17.53,1.5-36.32,12.17-50.29"/>
          <path class="st16" d="M435.28,326.89c12.79,6.88,19.86,21.65,21.76,27.4,0,0,15.67-11.77,23.22-16.78"/>
          <g>
            <polygon class="st27" points="476.64 366.18 438.17 366.18 438.19 358.88 476.6 358.88 476.64 366.18"/>
            <polygon class="st27" points="440.96 363.8 446.97 389.69 469.1 389.69 474.46 363.8 440.96 363.8"/>
          </g>
        </g>
      </g>
      <path class="st17" d="M440.32,357.38h3.42"/>
      <path class="st17" d="M445.31,357.38h9.36"/>
    </g>
    <g>
      <g>
        <path class="st31" d="M52.88,345.36c2.26-2.88,6.62-4.8,11.41-5.73-.38,1.42-.09,2.73.72,3.05.9.36,2.11-.65,2.71-2.24.17-.45.26-.9.3-1.32,4.83-.41,9.66.17,12.88,1.77,0,0-3.15,2.94-6.73,10.69-.11,0-.22,0-.33,0-2.31.02-4.18,1.18-4.16,2.58,0,1.02,1.02,1.89,2.47,2.28-.19.5-.38,1-.56,1.52-3.4,9.54-12.48,2.64-12.4-3.89,0,0-11.34-2.26-6.28-8.71Z"/>
        <g>
          <path class="st31" d="M41.69,333.05c-2.78-3.11-7.89-4.96-13.42-5.65.53,1.59.3,3.1-.6,3.53-1,.48-2.46-.57-3.25-2.35-.22-.5-.36-1-.43-1.48-5.53-.09-11,.94-14.55,3.02,0,0,3.81,3.11,8.44,11.66.12-.01.25-.03.38-.03,2.64-.15,4.85,1.02,4.93,2.62.06,1.17-1.03,2.24-2.65,2.79.25.55.5,1.11.75,1.69,4.57,10.61,14.42,2.05,13.86-5.39,0,0,12.76-3.45,6.53-10.42Z"/>
          <path class="st32" d="M34.94,330.72c1.18-5.97,6.13-12.19,12.43-17.3.49,2.36,1.86,4.05,3.27,3.88,1.58-.19,2.61-2.6,2.3-5.39-.09-.79-.28-1.51-.53-2.15,6.74-4.38,14.2-7.33,20.06-7.53,0,0-2.44,6.77-1.98,20.86-.16.08-.33.16-.49.25-3.35,1.85-5.22,5-4.18,7.03.76,1.49,2.87,1.96,5.26,1.39.09.87.19,1.75.3,2.66,2.02,16.58-16.26,13.65-20.92,4.07,0,0-18.17,5.61-15.53-7.76Z"/>
          <path class="st12" d="M48.11,368.54c-3.04-17.53,1.5-36.32,12.17-50.29"/>
          <path class="st16" d="M25.53,334.85c12.79,6.88,19.86,21.65,21.76,27.4,0,0,15.67-11.77,23.22-16.78"/>
          <g>
            <polygon class="st27" points="66.89 374.14 28.42 374.14 28.43 366.84 66.85 366.84 66.89 374.14"/>
            <polygon class="st27" points="31.21 371.76 37.22 397.65 59.35 397.65 64.71 371.76 31.21 371.76"/>
          </g>
        </g>
      </g>
      <path class="st17" d="M30.56,365.34h3.42"/>
      <path class="st17" d="M35.56,365.34h9.36"/>
    </g>
    <rect class="st27" x="171.52" y="218.56" width="39.76" height="10.23"/>
    <rect class="st18" x="233.45" y="70.9" width="39.76" height="10.23"/>
    <rect class="st18" x="192.43" y="356.17" width="39.76" height="10.23"/>
    <g>
      <rect class="st27" x="326.98" y="241.73" width="34.96" height="10.23"/>
      <rect class="st18" x="338.14" y="231.55" width="34.96" height="10.23"/>
    </g>
    <g>
      <rect class="st27" x="427.79" y="106.7" width="34.96" height="10.23"/>
      <rect class="st18" x="438.95" y="96.52" width="34.96" height="10.23"/>
    </g>
    <g>
      <rect class="st27" x="53.85" y="111.89" width="34.96" height="10.23"/>
      <rect class="st18" x="65.02" y="101.71" width="34.96" height="10.23"/>
    </g>
    <g>
      <rect class="st27" x="330.33" y="363.45" width="34.96" height="10.23"/>
      <rect class="st18" x="341.49" y="353.27" width="34.96" height="10.23"/>
    </g>
  </g>
  <g id="Background_simple" class="st33">
    <g>
      <path class="st30" d="M295.62,325.95c36.74-12.64,63.73-39.86,79.61-70.15,15.88-30.29,20.55-65.47,18.72-99.62-1.08-20.15-4.46-40.59-13.92-58.41s-25.75-32.8-45.5-36.95c-20.89-4.39-43.04,3.92-59.04,18.05-16,14.13-26.55,33.45-34.33,53.33-6.33,16.18-11.74,34.01-25.46,44.66-17.76,13.78-43.2,10.83-64.05,19.25-26.82,10.83-43.3,42.55-36.75,70.71,6.55,28.17,41.15,56.72,73.74,60.02,40.04,8.97,77.96,5.68,106.96-.87Z"/>
      <g class="st1">
        <path class="st21" d="M295.62,325.95c36.74-12.64,63.73-39.86,79.61-70.15,15.88-30.29,20.55-65.47,18.72-99.62-1.08-20.15-4.46-40.59-13.92-58.41s-25.75-32.8-45.5-36.95c-20.89-4.39-43.04,3.92-59.04,18.05-16,14.13-26.55,33.45-34.33,53.33-6.33,16.18-11.74,34.01-25.46,44.66-17.76,13.78-43.2,10.83-64.05,19.25-26.82,10.83-43.3,42.55-36.75,70.71,6.55,28.17,41.15,56.72,73.74,60.02,40.04,8.97,77.96,5.68,106.96-.87Z"/>
      </g>
    </g>
  </g>
  <g id="Shadow">
    <path class="st35" d="M462.87,439.88c0,12.7-95.31,23-212.87,23s-212.87-10.3-212.87-23,95.31-23,212.87-23,212.87,10.3,212.87,23Z"/>
  </g>
  <g id="Picture">
    <g>
      <g>
        <g>
          <rect class="st11" x="124.95" y="81.17" width="82.5" height="101.33"/>
          <rect class="st21" x="128.99" y="84.73" width="74.41" height="93.54"/>
        </g>
        <polygon class="st9" points="130.68 178.31 130.68 87.18 203.41 87.18 203.41 84.73 128.99 84.73 128.99 178.31 130.68 178.31"/>
        <rect class="st22" x="137.52" y="96.39" width="34.47" height="34.47" rx="1.03" ry="1.03"/>
      </g>
      <g id="freepik--legal-balance--inject-2">
        <path class="st30" d="M155.76,134.58c-1.66,4.32-6.51,6.48-10.84,4.82-2.22-.85-3.97-2.6-4.82-4.82h15.66Z"/>
        <path class="st30" d="M155.76,133.47c-.1,0-.2-.06-.25-.15l-7.61-14.47-7.59,14.47c-.07.14-.25.19-.39.12-.14-.07-.19-.25-.12-.39l7.83-14.94c.09-.14.28-.18.42-.09.04.02.07.05.09.09l7.83,14.94c.07.14.02.31-.12.39l-.1.03Z"/>
        <g class="st29">
          <path d="M155.76,133.47c-.1,0-.2-.06-.25-.15l-7.61-14.47-7.59,14.47c-.07.14-.25.19-.39.12-.14-.07-.19-.25-.12-.39l7.83-14.94c.09-.14.28-.18.42-.09.04.02.07.05.09.09l7.83,14.94c.07.14.02.31-.12.39l-.1.03Z"/>
        </g>
        <path class="st30" d="M147.9,134.19c-.15,0-.28-.11-.29-.26,0,0,0,0,0-.01v-15.67c0-.15.12-.28.28-.28,0,0,0,0,.01,0,.15,0,.28.12.28.28v15.64c.02.15-.1.29-.25.3,0,0-.02,0-.03,0Z"/>
        <g class="st29">
          <path d="M147.9,134.19c-.15,0-.28-.11-.29-.26,0,0,0,0,0-.01v-15.67c0-.15.12-.28.28-.28,0,0,0,0,.01,0,.15,0,.28.12.28.28v15.64c.02.15-.1.29-.25.3,0,0-.02,0-.03,0Z"/>
        </g>
        <rect class="st30" x="138.99" y="133.18" width="17.9" height="1.39"/>
        <rect class="st8" x="138.99" y="133.18" width="17.9" height="1.39"/>
        <path class="st30" d="M194.52,134.58c-1.67,4.33-6.54,6.48-10.86,4.8-2.21-.85-3.95-2.6-4.8-4.8h15.67Z"/>
        <path class="st30" d="M194.52,133.47c-.11,0-.2-.06-.25-.15l-7.59-14.47-7.59,14.47c-.07.14-.24.19-.38.12-.14-.07-.19-.24-.12-.38h0l7.83-14.94c.08-.14.26-.18.4-.1.04.02.07.06.1.1l7.86,14.94c.07.14.02.31-.12.39l-.15.03Z"/>
        <g class="st29">
          <path d="M194.52,133.47c-.11,0-.2-.06-.25-.15l-7.59-14.47-7.59,14.47c-.07.14-.24.19-.38.12-.14-.07-.19-.24-.12-.38h0l7.83-14.94c.08-.14.26-.18.4-.1.04.02.07.06.1.1l7.86,14.94c.07.14.02.31-.12.39l-.15.03Z"/>
        </g>
        <path class="st30" d="M186.68,134.19c-.15,0-.28-.12-.29-.28v-15.67c0-.15.13-.28.29-.28.15,0,.28.12.28.28v15.64c.02.15-.1.29-.25.3,0,0-.02,0-.03,0Z"/>
        <g class="st29">
          <path d="M186.68,134.19c-.15,0-.28-.12-.29-.28v-15.67c0-.15.13-.28.29-.28.15,0,.28.12.28.28v15.64c.02.15-.1.29-.25.3,0,0-.02,0-.03,0Z"/>
        </g>
        <rect class="st30" x="177.73" y="133.18" width="17.9" height="1.39"/>
        <rect class="st8" x="177.73" y="133.18" width="17.9" height="1.39"/>
        <path class="st30" d="M167.21,113.5v2.88c-2.92,0-6.23,1.66-8.87,3.12-1.72.94-3.67,1.37-5.63,1.24-2.34-.36-4.57-1.27-6.51-2.63v-1.61c1.87,1.34,4.09,2.11,6.39,2.23,2.09-.11,4.09-.85,5.75-2.12,2.65-1.75,5.7-2.82,8.87-3.1Z"/>
        <path class="st30" d="M147.9,117.13c0,.91-.74,1.66-1.66,1.66s-1.66-.74-1.66-1.66.74-1.66,1.66-1.66h0c.91,0,1.65.72,1.66,1.63,0,0,0,.02,0,.03Z"/>
        <path class="st5" d="M147.9,117.13c0,.91-.74,1.66-1.66,1.66s-1.66-.74-1.66-1.66.74-1.66,1.66-1.66h0c.91,0,1.65.72,1.66,1.63,0,0,0,.02,0,.03Z"/>
        <path class="st30" d="M167.21,113.5v2.88c2.92,0,6.23,1.66,8.88,3.12,1.72.94,3.67,1.37,5.63,1.24,2.34-.37,4.57-1.27,6.51-2.63v-1.61c-1.88,1.33-4.1,2.11-6.4,2.23-2.08-.11-4.09-.85-5.74-2.12-2.66-1.75-5.71-2.82-8.88-3.1Z"/>
        <path class="st30" d="M186.68,117.13c0,.91.75,1.64,1.66,1.63.91,0,1.64-.75,1.63-1.66,0-.9-.74-1.63-1.64-1.63s-1.64.73-1.64,1.64h0Z"/>
        <path class="st5" d="M186.68,117.13c0,.91.75,1.64,1.66,1.63.91,0,1.64-.75,1.63-1.66,0-.9-.74-1.63-1.64-1.63s-1.64.73-1.64,1.64h0Z"/>
        <rect class="st30" x="165.14" y="108.48" width="4.18" height="42.76"/>
        <path class="st30" d="M170.77,115.46c0,1.96-1.59,3.54-3.55,3.54s-3.54-1.59-3.54-3.54,1.59-3.55,3.54-3.55c1.95,0,3.54,1.57,3.55,3.52v.03Z"/>
        <path class="st5" d="M170.77,115.46c0,1.96-1.59,3.54-3.55,3.54s-3.54-1.59-3.54-3.54,1.59-3.55,3.54-3.55c1.95,0,3.54,1.57,3.55,3.52v.03Z"/>
        <path class="st30" d="M169.97,105.98c0,1.52-1.24,2.76-2.76,2.76s-2.76-1.24-2.76-2.76,1.24-2.76,2.76-2.76,2.76,1.24,2.76,2.76Z"/>
        <path class="st5" d="M169.97,105.98c0,1.52-1.24,2.76-2.76,2.76s-2.76-1.24-2.76-2.76,1.24-2.76,2.76-2.76,2.76,1.24,2.76,2.76Z"/>
        <path class="st30" d="M178.68,157.64h-22.93v-5.01c0-.76.62-1.38,1.38-1.38h20.17c.76,0,1.38.62,1.38,1.38v5.01Z"/>
        <path class="st30" d="M185.65,162.37h-36.84c-1.31,0-2.37-1.06-2.37-2.37h0c0-1.31,1.06-2.37,2.37-2.37h36.84c1.31,0,2.37,1.06,2.37,2.37h0c0,1.31-1.06,2.37-2.37,2.37h0Z"/>
        <rect class="st30" x="155.76" y="152.88" width="22.93" height="1.56"/>
        <rect class="st5" x="155.76" y="152.88" width="22.93" height="1.56"/>
        <path class="st30" d="M170.37,108.68c0,.63-.51,1.15-1.14,1.16h-3.99c-.64,0-1.15-.52-1.16-1.16h0c0-.63.52-1.14,1.16-1.14h3.99c.63,0,1.14.51,1.14,1.14h0Z"/>
        <path class="st8" d="M170.37,108.68c0,.63-.51,1.15-1.14,1.16h-3.99c-.64,0-1.15-.52-1.16-1.16h0c0-.63.52-1.14,1.16-1.14h3.99c.63,0,1.14.51,1.14,1.14h0Z"/>
      </g>
    </g>
  </g>
  <g id="Speech_Bubble_3">
    <g>
      <path class="st30" d="M341.36,117.44h25.25c2.59,0,4.68,2.1,4.68,4.68v18.29c0,2.59-2.1,4.68-4.68,4.68h-3.17v5.69l-4.62-5.69h-17.45c-2.59,0-4.68-2.1-4.68-4.68v-18.29c0-2.59,2.1-4.68,4.68-4.68Z"/>
      <path class="st21" d="M362.04,130.42c.22,1.46-1.02,2.7-2.48,2.48-.91-.14-1.66-.88-1.79-1.79-.22-1.46,1.02-2.7,2.48-2.48.91.14,1.66.88,1.79,1.79ZM353.67,128.63c-1.46-.22-2.7,1.02-2.48,2.48.14.91.88,1.66,1.79,1.79,1.46.22,2.7-1.02,2.48-2.48-.14-.91-.88-1.65-1.79-1.79ZM347.09,128.63c-1.46-.22-2.7,1.02-2.48,2.48.14.91.88,1.66,1.79,1.79,1.46.22,2.7-1.02,2.48-2.48-.14-.91-.88-1.65-1.79-1.79Z"/>
      <path class="st30" d="M366.23,115.79h-16.47c-.48,0-.48.75,0,.75h16.47c.48,0,.48-.75,0-.75h0Z"/>
    </g>
  </g>
  <g id="Speech_Bubble_2">
    <g>
      <path class="st30" d="M235.21,170.27h25.25c2.59,0,4.68,2.1,4.68,4.68v18.29c0,2.59-2.1,4.68-4.68,4.68h-3.17v5.69l-4.62-5.69h-17.45c-2.59,0-4.68-2.1-4.68-4.68v-18.29c0-2.59,2.1-4.68,4.68-4.68Z"/>
      <path class="st21" d="M255.89,183.25c.22,1.46-1.02,2.7-2.48,2.48-.91-.14-1.66-.88-1.79-1.79-.22-1.46,1.02-2.7,2.48-2.48.91.14,1.66.88,1.8,1.79ZM247.51,181.46c-1.46-.22-2.7,1.02-2.48,2.48.14.91.88,1.66,1.79,1.79,1.46.22,2.7-1.02,2.48-2.48-.14-.91-.88-1.65-1.79-1.79ZM240.94,181.46c-1.46-.22-2.7,1.02-2.48,2.48.14.91.88,1.66,1.79,1.79,1.46.22,2.7-1.02,2.48-2.48-.14-.91-.88-1.65-1.8-1.79Z"/>
      <path class="st30" d="M260.07,168.62h-16.47c-.48,0-.48.75,0,.75h16.47c.48,0,.48-.75,0-.75h0Z"/>
    </g>
  </g>
  <g id="Speech_Bubble_1">
    <g>
      <path class="st30" d="M60.44,175.56c-7.85-5.23-18.45-3.1-23.68,4.76-5.23,7.85-3.1,18.45,4.76,23.68,6.06,4.03,13.75,3.67,19.35-.31l5,1.14-.84-5.35c.05-.08.12-.15.17-.23,5.23-7.85,3.1-18.45-4.76-23.68Z"/>
      <path class="st21" d="M50.12,190.55c.37-.63.91-1.32,1.62-2.08.52-.56.9-1.02,1.15-1.4.24-.38.37-.81.37-1.29,0-.68-.23-1.23-.7-1.62s-1.08-.6-1.85-.6-1.4.18-1.97.54c-.58.36-1.06.87-1.45,1.51l-2.86-1.97c.66-1.18,1.56-2.1,2.68-2.75,1.13-.65,2.46-.97,4.01-.97,1.81,0,3.26.45,4.36,1.36,1.09.91,1.64,2.17,1.64,3.78,0,.76-.11,1.43-.32,2-.21.57-.47,1.06-.78,1.46-.31.4-.7.86-1.19,1.37-.58.61-1.01,1.12-1.28,1.54-.27.42-.4.92-.4,1.51h-3.57c0-.96.18-1.76.55-2.39ZM49.74,198.97c-.43-.44-.65-.97-.65-1.6s.21-1.16.64-1.58c.43-.42.97-.63,1.63-.63s1.2.21,1.63.63c.43.42.64.95.64,1.58s-.22,1.16-.65,1.6c-.43.44-.97.66-1.62.66s-1.19-.22-1.62-.66Z"/>
    </g>
  </g>
  <g id="Character_3">
    <g>
      <g>
        <path class="st11" d="M394.85,431.91c1.1-.84,2.36-1.45,3.69-1.83h0s4.06-3.73,6.43-15.35l5.14-1.13c1.8-.37,3.64.44,4.59,2.01.14.21.25.45.3.69.22,1.24.35,2.5.4,3.75.12,4.29-.03,8.59-.42,12.86h-.93v-8.08c0-2.75-2.26.39-2.97,3.3-.71,2.92-2.12,6.02-8.14,5.93-7.02-.14-9.93-.58-8.09-2.16Z"/>
        <path class="st36" d="M406,410.58s-1.29,5.31-3.27,11.16c-.85,3.03-2.27,5.86-4.19,8.35,0,0,4.46.98,6.53-1.98,2.07-2.96,5.14-13.17,9.66-12.45-.34-.78-.77-1.51-1.29-2.19-.72-1.09-7.45-2.89-7.45-2.89Z"/>
      </g>
      <g>
        <path class="st11" d="M439.52,431.91c1.1-.84,2.36-1.45,3.69-1.83h0s4.06-3.73,6.43-15.35l5.14-1.13c1.8-.37,3.64.44,4.59,2.01.14.21.25.45.3.69.22,1.24.35,2.5.4,3.75.12,4.29-.03,8.59-.42,12.86h-.93v-8.08c0-2.75-2.26.39-2.97,3.3-.71,2.92-2.12,6.02-8.14,5.93-7.02-.14-9.93-.58-8.09-2.16Z"/>
        <path class="st36" d="M450.67,410.58s-1.29,5.31-3.27,11.16c-.85,3.03-2.27,5.86-4.19,8.35,0,0,4.46.98,6.53-1.98,2.07-2.96,5.14-13.17,9.66-12.45-.34-.78-.77-1.51-1.29-2.19-.72-1.09-7.45-2.89-7.45-2.89Z"/>
      </g>
      <path class="st36" d="M430.35,186.3c0,.93,9.16,16.77,11.77,22.34,2.84,6.06,10.03,38.59,10.03,38.59l-6.54,2.86s-10.57-29.98-13.31-36.42c-2.74-6.44-13.18-19.94-13.18-19.94l11.23-7.43Z"/>
      <path class="st36" d="M338.6,202.99s15.52,11.58,18.45,9.97c2.92-1.62,13.73-22.43,13.73-22.43l7.56,10.27s-9.59,22.87-18.78,22.87c-6.84,0-25.34-14.9-25.34-14.9l4.38-5.78Z"/>
      <g>
        <path class="st11" d="M383.35,231.65s1.79,67.11,4.39,94.93c2.72,28.94,13.1,85.97,13.1,85.97l15.8.96s-4.76-58.11-5.74-86.65c-.08-2.51.81-36.21.6-39.1-2.39-32.97-13.27-56.54-13.27-56.54l-14.88.43Z"/>
        <path class="st0" d="M410.42,255.15c-1.5-1.67-3.13-.8-4.98,3.95-6.18,16.23.41,42.12,5.21,57.04-.32-18.56-.31-42.99-.23-60.99Z"/>
        <path class="st11" d="M421.14,231.26c14.87,13.94,16.44,65.56,21.12,93.4,4.87,28.96,19.22,88.83,19.22,88.83l-17,.04s-17.02-56.7-25.56-87.65c-9.75-30.86-21.59-94.59-21.59-94.59l23.81-.04Z"/>
      </g>
      <path class="st36" d="M452.16,247.23l6,7.18-9.24,1.19s-5.21-2.24-3.08-7.2l6.32-1.16Z"/>
      <rect class="st30" x="439.27" y="251.85" width="41.48" height="28.46" transform="translate(-46.05 103.88) rotate(-12.27)"/>
      <rect class="st25" x="439.27" y="251.85" width="41.48" height="28.46" transform="translate(-46.05 103.88) rotate(-12.27)"/>
      <g>
        <path class="st36" d="M339.3,204.12s-.68-2.93-2.8-4.22c-2.12-1.29-3.48-2.89-5.12-3.74-1.65-.85-.72,1.47.03,2.61.74,1.14,1.58,2.43.63,2.85-.94.42-9.78-.47-11.02.26-1.24.73.14,1.32.14,1.32,0,0-2.15-.16-2.45.68-.08.22.1.85,1.07,1.07,2.18.51,6.81,1.34,6.81,1.34-.26-.05-6.06-.67-6.94-.65-1.15.03-1.68.63-1.64,1.29.05.95,7.21,1.96,7.48,2.21,0,0-4.1-.72-4.86.24-.76.96,1.79,1.55,4.14,1.65,2.16.09,6.37.82,8.57.7,2.71-.15,4.5-.86,5.42-3.24.92-2.38.54-4.37.54-4.37Z"/>
        <path class="st13" d="M321.42,203.22c1.72.17,3.44.42,5.14.75"/>
        <path class="st13" d="M327.05,209.53c-.37-2.2-.08-4.52.83-6.56"/>
        <path class="st13" d="M332.58,202.63c.05.91.42,1.8,1.03,2.47.62.67,1.47,1.12,2.37,1.24"/>
      </g>
      <g>
        <path class="st11" d="M470.64,254.9c1.56,5.59,3.12,11.18,4.68,16.77.13.46.85.27.72-.2-1.56-5.59-3.12-11.18-4.68-16.77-.13-.46-.85-.27-.72.2h0Z"/>
        <path class="st11" d="M467.67,255.55c1.04,3.73,2.08,7.45,3.12,11.18.13.46.85.27.72-.2l-3.12-11.18c-.13-.46-.85-.27-.72.2h0Z"/>
        <path class="st11" d="M464.7,256.21c1.56,5.59,3.12,11.18,4.68,16.77.13.46.85.27.72-.2-1.56-5.59-3.12-11.18-4.68-16.77-.13-.46-.85-.27-.72.2h0Z"/>
        <path class="st11" d="M458.77,257.53c1.56,5.59,3.12,11.18,4.68,16.77.13.46.85.27.72-.2-1.56-5.59-3.12-11.18-4.68-16.77-.13-.46-.85-.27-.72.2h0Z"/>
        <path class="st11" d="M455.8,258.19l3.35,11.99c.13.46.85.27.72-.2-1.12-4-2.23-7.99-3.35-11.99-.13-.46-.85-.27-.72.2h0Z"/>
        <path class="st11" d="M452.84,258.85c1.56,5.59,3.12,11.18,4.68,16.77.13.46.85.27.72-.2-1.56-5.59-3.12-11.18-4.68-16.77-.13-.46-.85-.27-.72.2h0Z"/>
        <path class="st11" d="M449.87,259.51c1.56,5.59,3.12,11.18,4.68,16.77.13.46.85.27.72-.2-1.56-5.59-3.12-11.18-4.68-16.77-.13-.46-.85-.27-.72.2h0Z"/>
        <path class="st11" d="M446.91,260.17c1.19,4.27,2.38,8.54,3.58,12.81.13.46.85.27.72-.2-1.19-4.27-2.38-8.54-3.58-12.81-.13-.46-.85-.27-.72.2h0Z"/>
        <path class="st11" d="M443.94,260.83c1.56,5.59,3.12,11.18,4.68,16.77.13.46.85.27.72-.2-1.56-5.59-3.12-11.18-4.68-16.77-.13-.46-.85-.27-.72.2h0Z"/>
      </g>
      <g>
        <path class="st30" d="M380.14,176.31c-3.9-.15-10.76,14.04-10.76,14.04l10.15,12.3s11.83-14.84,10.21-19.64c-1.73-5-3.92-6.5-9.59-6.7Z"/>
        <polygon class="st0" points="379.5 179.73 374.22 196.26 378.97 202 379.5 179.73"/>
        <path class="st30" d="M376.46,180.84c-.2,5.8.8,19.32,6.89,50.81h37.63c-1.04-15.11,0-24.6,1.96-56.99-5.24-.92-7.99-1.29-13.31-1.45-5.64-.23-11.28-.06-16.89.51-4.3.52-8.94,1.41-11.98,2.09-2.42.5-4.19,2.57-4.3,5.04Z"/>
        <path class="st30" d="M422.94,174.66c3.75,1.04,11.16,13.88,11.16,13.88l-14.15,10.76s-5.59-10.54-4.17-15.41c1.49-5.06,2.87-10.4,7.16-9.23Z"/>
        <path class="st0" d="M421.46,198.67s-4.09-9.27-4.61-8.77,4.04,18.66,4.04,18.66l.57-9.89Z"/>
        <g class="st19">
          <path d="M389.18,205.58c4.93,5.83,11.1,10.54,18.01,13.77.43.2.82-.44.38-.65-6.87-3.21-12.96-7.87-17.86-13.65-.31-.37-.84.16-.53.53h0Z"/>
        </g>
      </g>
      <path class="st36" d="M456.85,258.47c-.78-2.18-2.15-4.15-3.92-5.64l-7.31-.2c.57,1.56,1.83,2.86,3.37,3.49,1.06.43,2.26.56,3.19,1.23,1.02.74,1.53,2,2.42,2.89.51.51,1.31.9,1.92.53.72-.43.61-1.51.32-2.3Z"/>
      <g>
        <path class="st11" d="M398.04,132.95s-14.7-6.45-19.01,11.73c-1.07,19.33-4,29-4,29,0,0,19.13,1.15,33.62-10.62l-10.61-30.11Z"/>
        <g>
          <path class="st11" d="M396.97,132.62s1.75,25.33,0,37.95c10.06-1.03,20.19,3.29,20.76-8.63,0,0-2.3-32.38-20.76-29.32Z"/>
          <path class="st36" d="M403.56,156.53l-8.39,8.5-2.36,1.42c.53,1.25.99,2.54,1.18,3.79.37,2.2-2.1,3.16-2.88,3.74l4.26,6.31c4.23-3.66,11.66-6.79,11.66-6.79-4.44-3.07-4.42-11.76-3.47-16.97Z"/>
          <path class="st9" d="M394.06,170.73c2.31-1.38,4.84-3.76,4.53-6.49-.14-1.15-.39-2.23-.66-2.93l-4.68,6.23c.39,1,.53,1.66.82,3.18Z"/>
          <path class="st36" d="M405.16,146.96c-.77,8.64-.92,12.31-5.37,16.85-6.69,6.83-17.02,4.56-18.81-4-1.62-7.71-.08-20.54,8.4-24.19,8.35-3.6,16.55,2.71,15.78,11.35Z"/>
          <path class="st11" d="M402.17,149.95s-4.47-6.7-4.25-12.13c0,0-8.54-2.21-15.32,6.9-1.08,1.45-1.72,3.87-2.69,5.95,0,0-1.66-16.44,12.92-17.82,14.56-1.38,17.47,19.09,10.38,26,0,0,1.73-4.71-1.04-8.9Z"/>
          <path class="st36" d="M407.79,154c-1.02,1.77-2.67,2.89-4.19,3.28-2.29.58-3.47-3.1-2.7-5.39.7-2.06,2.94-3.43,5.17-2.99,2.19.44,2.88,3.07,1.72,5.1Z"/>
          <path class="st10" d="M402.96,153.55c.05-.82.44-1.61,1.06-2.15.62-.54,1.45-.83,2.27-.78"/>
          <path class="st30" d="M406.74,156.41c0,1.04-.84,1.89-1.89,1.89-1.04,0-1.89-.84-1.89-1.89s.84-1.89,1.89-1.89c1.04,0,1.89.84,1.89,1.89Z"/>
        </g>
        <g class="st19">
          <path d="M401.19,135.54c.17,5.08,5.1,7.71,7.79,11.42,2.93,4.03,4.16,9.09,3.55,14.02-.06.48.69.47.75,0,.56-4.53-.41-9.18-2.78-13.08-1.2-1.99-2.78-3.6-4.43-5.21-2.01-1.97-4.03-4.18-4.13-7.14-.02-.48-.77-.48-.75,0h0Z"/>
        </g>
      </g>
    </g>
  </g>
  <g id="Character_2">
    <g>
      <g>
        <path class="st11" d="M311.07,275.96s-2.89,57.99-15.38,67.97h13.36s11.91-19.76,12.8-67.97h-10.78Z"/>
        <path class="st6" d="M311.07,275.96s-2.89,57.99-15.38,67.97h13.36s11.91-19.76,12.8-67.97h-10.78Z"/>
        <path class="st30" d="M251.8,339.13h69.27v5.12c0,2.48-2.01,4.49-4.49,4.49h-60.28c-2.48,0-4.49-2.01-4.49-4.49v-5.12h0Z" transform="translate(572.86 687.87) rotate(180)"/>
        <path class="st8" d="M251.8,339.13h69.27v5.12c0,2.48-2.01,4.49-4.49,4.49h-60.28c-2.48,0-4.49-2.01-4.49-4.49v-5.12h0Z" transform="translate(572.86 687.87) rotate(180)"/>
        <path class="st11" d="M318.45,415.28l-26.7-2.33v-42.03h-9.39v42.02l-26.8,2.34c-2.36.23-4.16,2.22-4.16,4.59v3.56h71.21v-3.56c0-2.37-1.8-4.36-4.16-4.59Z"/>
        <path class="st4" d="M318.45,415.28l-26.7-2.33v-42.03h-9.39v42.02l-26.8,2.34c-2.36.23-4.16,2.22-4.16,4.59v3.56h71.21v-3.56c0-2.37-1.8-4.36-4.16-4.59Z"/>
        <path class="st11" d="M260.04,427.84c0,3.39-2.75,6.14-6.14,6.14s-6.14-2.75-6.14-6.14,2.75-6.14,6.14-6.14,6.14,2.75,6.14,6.14Z"/>
        <path class="st11" d="M313.97,427.84c0,3.39,2.75,6.14,6.14,6.14s6.14-2.75,6.14-6.14-2.75-6.14-6.14-6.14-6.14,2.75-6.14,6.14Z"/>
        <path class="st11" d="M280.95,345.34h12.62v26.14c0,2.05-1.66,3.71-3.71,3.71h-5.19c-2.05,0-3.71-1.66-3.71-3.71v-26.14h0Z"/>
        <path class="st6" d="M280.95,345.34h12.62v26.14c0,2.05-1.66,3.71-3.71,3.71h-5.19c-2.05,0-3.71-1.66-3.71-3.71v-26.14h0Z"/>
        <g>
          <rect class="st11" x="249.16" y="343.93" width="74.54" height="4.81" rx="1.81" ry="1.81" transform="translate(572.86 692.67) rotate(180)"/>
          <rect class="st6" x="249.16" y="343.93" width="74.54" height="4.81" rx="1.81" ry="1.81" transform="translate(572.86 692.67) rotate(180)"/>
        </g>
        <path class="st30" d="M319.39,333.75h-22c-6.44,0-11.1-5.79-10.4-12.93l10-55.9c.7-7.14,6.5-12.93,12.94-12.93h22c6.44,0,11.1,5.79,10.4,12.93l-10,55.9c-.7,7.14-6.5,12.93-12.94,12.93Z"/>
        <path class="st8" d="M319.39,333.75h-22c-6.44,0-11.1-5.79-10.4-12.93l10-55.9c.7-7.14,6.5-12.93,12.94-12.93h22c6.44,0,11.1,5.79,10.4,12.93l-10,55.9c-.7,7.14-6.5,12.93-12.94,12.93Z"/>
        <path class="st8" d="M331.93,251.98h-4.2c6.44,0,11.1,5.79,10.4,12.93l-10,55.9c-.7,7.14-6.5,12.93-12.94,12.93h4.2c6.44,0,12.24-5.79,12.94-12.93l10-55.9c.7-7.14-3.95-12.93-10.4-12.93Z"/>
        <g>
          <g>
            <rect class="st30" x="305.39" y="232.26" width="35.25" height="20.23" rx="8.71" ry="8.71"/>
            <rect class="st5" x="305.39" y="232.26" width="35.25" height="20.23" rx="8.71" ry="8.71"/>
          </g>
          <rect class="st30" x="301.49" y="232.26" width="35.25" height="20.23" rx="8.71" ry="8.71"/>
          <rect class="st8" x="301.49" y="232.26" width="35.25" height="20.23" rx="8.71" ry="8.71"/>
        </g>
      </g>
      <g>
        <g>
          <g id="freepik--character-2--inject-2">
            <path class="st11" d="M268.1,307.67s-30.74,4.24-48.41,11.88c-6.13,2.65-9.76,8.08-10.56,13.97-3.92,31.89-3.86,79.32-3.86,79.32l17.65,1.05s8.09-44.04,7.91-69.68c16.12-4.55,57.98-1.59,62.92-14.94,2.41-6.92,3.05-14.34,1.85-21.57l-27.51-.02Z"/>
            <path class="st8" d="M262.07,314.03s-22.73,21.22-21.7,28.45c-3.22.33-6.41.91-9.54,1.72,0,2.49.11,5.53-.16,8.01-9.59-14.3-8.68-28.03,31.4-38.18Z"/>
            <path class="st11" d="M288.01,307.72s-57.65,9.97-55.56,27.2c3.01,24.85,25.37,82.17,25.37,82.17l15.83-5.77s-10.74-52.18-14.56-70.31c14.81,0,45.4,1.6,50.33-11.75,2.4-6.8-1.13-14.61-2.61-21.67l-18.8.14Z"/>
          </g>
          <path class="st8" d="M266.63,308.38s9.91,12.7,25.79,14.7c15.87,2,18.89-1.93,18.89-1.93,0,0,.07-6.19.32-5.87.25.32-43.36-8.73-43.36-8.73l-1.63,1.83Z"/>
        </g>
        <rect class="st8" x="280.95" y="348.74" width="12.62" height="2.4"/>
        <g>
          <path class="st34" d="M281.65,235.26c3.68-.39,3.3-4.91,2.86-8.37-.18-1.24-.46-2.46-.84-3.66l6.41-5.35,5.8-4.91c-.36,2.16-.61,4.34-.74,6.53-.32,3.78.1,6.81.6,10.45.45,1.62,1.44,2.88,2.23,3.9,0,0-6.59,4.99-11.11,4.86-4.53-.12-5.21-3.44-5.21-3.44Z"/>
          <path class="st0" d="M295.24,222.39s-3.81,9.15-10.63,5.58l-.1-1.59,10.73-3.98Z"/>
          <path class="st34" d="M298.66,201.77c-2.17-6.33-9.26-9.94-15.83-8.07-9.07,2.59-11.08,15.26-9.6,23.16,1.65,8.8,12.59,13.78,19.87,7.78,4.85-3.99,5.02-9.06,6.1-17.62.24-1.76.05-3.55-.53-5.26Z"/>
          <path class="st11" d="M270.62,199.13s.84.98,1.62.69c-.79-1.27-.69-2.85.25-3.97,0,0,.57,1.35,1.24,1.38.4-3.19,1.82-6.16,4.08-8.51,3.91-4.35,16.71,1.26,16.71,1.26,0,0,3.06-2.6,7.93,1.8,3.91,3.53,4.36,10.75,4,13.86-1.42,2.99-4.77,5.89-9.32,7.36-2.23-2.54-2.39-6.37-2.17-9.02-.67-.19-1.3-.53-1.82-1.03-2-1.91-.51-8.58-8.47-7.59-1.41-.86-3.19-.87-4.54-.02-2.45,1.42-3.76,9.21-7.15,6.93-3.38-2.28-2.37-3.15-2.37-3.15Z"/>
          <path class="st24" d="M270.62,199.13s.84.98,1.62.69c-.79-1.27-.69-2.85.25-3.97,0,0,.57,1.35,1.24,1.38.4-3.19,1.82-6.16,4.08-8.51,3.91-4.35,16.71,1.26,16.71,1.26,0,0,3.06-2.6,7.93,1.8,3.91,3.53,4.36,10.75,4,13.86-1.42,2.99-4.77,5.89-9.32,7.36-2.23-2.54-2.39-6.37-2.17-9.02-.67-.19-1.3-.53-1.82-1.03-2-1.91-.51-8.58-8.47-7.59-1.41-.86-3.19-.87-4.54-.02-2.45,1.42-3.76,9.21-7.15,6.93-3.38-2.28-2.37-3.15-2.37-3.15Z"/>
          <g>
            <path class="st34" d="M303.99,214.43c-.98,2.16-2.82,3.84-5.14,4.66-3.07,1.07-4.96-1.52-4.4-4.45.52-2.59,2.72-6.36,5.96-6.14,3.23.22,4.74,3.26,3.58,5.92Z"/>
            <path class="st15" d="M296.61,215.24c.18-1.59,1.14-3.07,2.55-3.92.6-.36,1.43-.59,2-.17"/>
          </g>
          <g class="st19">
            <path class="st21" d="M285.09,194.6c-.42-1.15-.95-2.09-1.84-2.95-.8-.77-1.87-1.33-2.99-1.42-1.31-.11-2.61.5-3.51,1.43-.91.94-1.46,2.17-1.83,3.41-.14.46.58.66.72.2.56-1.89,1.73-3.97,3.88-4.28.83-.12,1.59.09,2.34.53,1.27.74,2.02,1.94,2.51,3.28.16.45.89.26.72-.2h0Z"/>
          </g>
          <g class="st19">
            <path class="st21" d="M286.92,194.02c-.3-2.95-2.42-5.55-5.27-6.4-.46-.14-.66.59-.2.72,2.51.74,4.46,3.06,4.72,5.67.05.48.8.48.75,0h0Z"/>
          </g>
        </g>
        <g>
          <polygon class="st11" points="220.66 399.11 207.67 397.59 210.33 418.81 218.43 420.44 220.66 399.11"/>
          <path class="st11" d="M208.5,415.15l3.09-.03c.7,0,1.36.32,1.8.86,1.88,2.3,3.18,1.41,5.02-.79,1.22-.15,1.61,1.19,1.73,1.56l2.66,7.98c.23.67-.15,1.37-.84,1.57-.12.04-.25.05-.38.05-3.75.04-5.52.06-10.18.1l-14.26.14c-3.89.04-4.86-3.69-3.27-4.05,7.14-1.59,12.15-3.66,14.29-5.68.4-.35-.04-.61.36-1.7Z"/>
          <path class="st30" d="M204.02,417.92c.97-.03,1.94-.16,2.88-.38.09-.03.13-.13.09-.21-.02-.05-.06-.08-.11-.1-.44-.2-4.38-1.88-5.31-1.22-.18.11-.27.32-.23.52.02.38.23.74.57.96.65.35,1.39.5,2.12.43ZM206.28,417.32c-1.13.21-3.23.5-4.14-.11-.23-.17-.39-.42-.41-.7-.02-.09.01-.17.09-.22.52-.36,2.83.38,4.46,1.03Z"/>
          <path class="st30" d="M206.85,417.55s.08.01.12,0c.05-.04.07-.11.04-.17,0-.15-1.07-3.77-3.18-3.51-.52.07-.66.31-.67.52-.09.96,2.42,2.75,3.6,3.2l.09-.03ZM204.06,414.14c1.34-.01,2.21,2.09,2.51,2.94-1.29-.62-3.12-2.11-3.03-2.7,0-.05,0-.18.38-.22h.14Z"/>
          <path class="st14" d="M206.46,417.44c1.07.13,2.08.72,2.69,1.58"/>
          <path class="st14" d="M204.6,418.84c1.07.13,2.08.72,2.69,1.58"/>
          <path class="st14" d="M202.26,420.02c1.07.13,2.08.72,2.69,1.58"/>
        </g>
        <g>
          <polygon class="st11" points="268.2 397.2 255.29 399.31 263.69 418.98 271.92 418.31 268.2 397.2"/>
          <path class="st11" d="M260.92,415.96l2.96-.88c.67-.2,1.4-.06,1.96.33,2.44,1.69,3.45.48,4.61-2.14,1.14-.48,1.88.7,2.09,1.02l4.75,6.94c.4.58.24,1.35-.37,1.74-.11.07-.23.12-.35.16-3.59,1.07-5.29,1.57-9.76,2.9l-13.67,4.06c-3.73,1.11-5.69-2.21-4.26-2.99,6.42-3.49,10.67-6.87,12.17-9.4.28-.45-.2-.58-.12-1.73Z"/>
          <path class="st30" d="M257.37,419.86c.93-.3,1.82-.69,2.66-1.16.08-.05.09-.16.03-.23-.03-.04-.08-.06-.13-.06-.48-.07-4.72-.6-5.44.29-.14.16-.17.38-.08.56.13.36.43.64.81.76.72.16,1.47.1,2.15-.17ZM259.38,418.66c-1.03.52-2.97,1.37-4.01,1.03-.27-.1-.49-.3-.59-.56-.04-.08-.03-.17.03-.24.4-.49,2.82-.42,4.57-.24Z"/>
          <path class="st30" d="M260,418.72s.08-.01.12-.03c.04-.06.03-.13,0-.18-.05-.15-2.07-3.33-4.02-2.5-.48.21-.55.48-.5.68.18.95,3.08,1.98,4.34,2.09l.08-.05ZM256.38,416.21c1.28-.38,2.7,1.4,3.22,2.13-1.41-.24-3.58-1.17-3.66-1.76-.02-.05-.06-.17.31-.32l.13-.05Z"/>
          <path class="st14" d="M259.59,418.73c1.06-.17,2.2.12,3.02.78"/>
          <path class="st14" d="M258.18,420.58c1.06-.17,2.2.12,3.02.78"/>
          <path class="st14" d="M256.26,422.36c1.06-.17,2.2.12,3.02.78"/>
        </g>
        <g>
          <g>
            <path class="st34" d="M231.63,285.74l-14.29.43c-.76-.05-1.5.18-2.11.64l-7.5,5.74s.71.96,1.9.57l-1.27,1.6s1,.96,2.28.02,3.94-2.19,3.94-2.19l-3.21,3.57s.07,1.18,1.7.51c1.63-.66,4.39-3.46,4.39-3.46,0,0,6.94,1.47,8.48.62,1.54-.86,7.21-1.48,7.21-1.48l-1.53-6.55Z"/>
            <path class="st20" d="M227.99,289.8c.06.86-.73,1.47-1.49,1.69-1.19.35-2.55.15-3.75-.03-.76-.12-1.49-.3-2.21-.57-1.45-.54-2.86-.26-4.38-.2-.5.02-2.06.26-1.96-.54.07-.6.78-.72,1.28-.84,2.4-.57,4.93-.74,7.38-1.04.47-.06.48-.81,0-.75-.92.11-1.84.23-2.77.35-1.65.22-3.37.33-4.98.76-.63.17-1.4.43-1.61,1.12-.18.59-.06,1.22.53,1.49,1,.45,2.41.19,3.46.12.82-.06,1.64-.17,2.43.1,2.03.68,4.32,1.27,6.47.82,1.16-.24,2.43-1.15,2.33-2.48-.04-.48-.79-.48-.75,0h0Z"/>
          </g>
          <path class="st30" d="M279.37,234.63c.34-.32,5.1-4.46,5.1-4.46l4.05,4.46,7.83-5.41,3.84,3.29-20.01,38.92-3.13-4.35,2.33-32.45Z"/>
          <path class="st23" d="M279.37,234.63c.34-.32,5.1-4.46,5.1-4.46l4.05,4.46,7.83-5.41,3.84,3.29-20.01,38.92-3.13-4.35,2.33-32.45Z"/>
          <g>
            <path class="st30" d="M288,236.22c-.3.18-2.92,2.2-2.92,2.2l.66,3.52,2.61.48,2.8-4.24-3.16-1.96Z"/>
            <polygon class="st30" points="285.75 241.94 280.14 256.84 280.42 271.43 287.75 256.15 288.36 242.42 285.75 241.94"/>
            <polygon class="st26" points="285.75 241.94 280.14 256.84 280.42 271.43 287.75 256.15 288.36 242.42 285.75 241.94"/>
            <path class="st26" d="M288,236.22c-.3.18-2.92,2.2-2.92,2.2l.66,3.52,2.61.48,2.8-4.24-3.16-1.96Z"/>
          </g>
          <g>
            <path class="st30" d="M264.45,309.95s6.29,4.31,15.98,1.93l-5.1-15.89-10.88,13.96Z"/>
            <path class="st23" d="M264.45,309.95s6.29,4.31,15.98,1.93l-5.1-15.89-10.88,13.96Z"/>
          </g>
          <g>
            <path class="st30" d="M281.08,232.51l-5.17,2.91s-13.44,2.59-14.08,4.12-1.87,53.45-2.1,57.7c-.22,4.25-12.75,12.48-11.85,14.05.9,1.56,12.79-1.58,16.58-2.29l9.21-8.4,6.76-29.65.66-38.44Z"/>
            <path class="st19" d="M271.49,249.44c.73,1.14,2.49,2.81,2.49,2.81,0,0-2.96,2.13-3.15,3.52-.19,1.39,7.45,27.45,8.22,26.9.27-.19.72-2.64,1.19-5.78l.18-5.94.66-38.44-5.17,2.91s-5.15,12.87-4.42,14.01Z"/>
            <path class="st30" d="M291.28,334.98s-2.15-1.9-6.62-11.34c-4.23-8.95-11.04-22.71-11.04-22.71l6.55-29.5,18.14-41.4,5.91,3.65,8.12,2.26-9.23,56.31s14.05,33.34,13.8,34c-.25.66-25.64,8.73-25.64,8.73Z"/>
            <path class="st19" d="M280.17,271.43l-.71,3.98-1.12,5.28s21.35-27.58,21.84-29.58c.49-2-1.43-2.4-1.43-2.4,0,0,3.12-1.73,3.52-3.2.4-1.47,1.96-11.81,1.96-11.81l-5.91-3.65-18.14,41.4Z"/>
            <g class="st19">
              <path d="M274,303.69c.03-1.17.45-2.43.68-3.58.56-2.73,1.14-5.46,1.71-8.19,1.51-7.21,3.01-14.42,4.4-21.65.09-.47-.63-.67-.72-.2-1.41,7.34-2.94,14.67-4.47,21.99-.56,2.69-1.13,5.38-1.68,8.07-.23,1.14-.63,2.38-.67,3.56-.01.48.74.48.75,0h0Z"/>
            </g>
            <polygon class="st19" points="288.36 305.66 303.11 302.77 305.54 307.16 290.51 310.33 288.36 305.66"/>
            <polygon class="st19" points="262.17 301.79 257.73 300.92 253.33 305.32 260.02 306.46 262.17 301.79"/>
          </g>
          <path class="st30" d="M266.56,260.03c-.24.59-3.74,32.21-10.03,34.3-6.28,2.09-26.63.8-26.63.8l-1.7-9.39,20.62-4.91,13-41.29,4.74,20.49Z"/>
          <g class="st19">
            <path d="M259.83,294.33c.71-11.95,1.48-23.91,2.52-35.84.28-3.19.55-6.38,1.01-9.55.07-.47-.65-.68-.72-.2-.94,6.49-1.34,13.08-1.82,19.61-.53,7.11-1,14.23-1.45,21.35-.1,1.54-.19,3.08-.28,4.62-.03.48.72.48.75,0h0Z"/>
          </g>
          <path class="st34" d="M283.5,297.57c-1.69,1.92-4.44-.78-5.5.04-.61.49-1.28.87-2.01,1.15,0,0,2.21,1.07,1.48,1.53s-2.76,2.24-4.78,1.12c-2.01-1.12-3.56-6.17-3.63-7.03-.06-.85,2.14-2.71,2.14-2.71,0,0-2.78,1.58-4.16,2.59-1.38,1.01-2.97-.16-.97-1.5.82-.55,6.38-5.86,7.53-5.87,1.15-.01,8.77,3.42,8.77,3.42,1.28-.33,3.73,6.38,1.12,7.26Z"/>
          <path class="st30" d="M312.35,235.95s3.26-1.5,4.58,4.76c1.32,6.26,8.57,41.72,3.87,46.22-3.23,3.1-35.2,14.61-36,12.56-.8-2.05-4.43-6.79-3.14-11.08,1.3-4.3,25.1-8.66,25.47-10.72.16-.91.24-16.51.24-16.51,1.4-11.3,4.97-25.22,4.97-25.22Z"/>
          <polygon class="st19" points="287.49 299.49 304.01 294.38 304.73 296.09 294.26 299.57 287.49 299.49"/>
          <g class="st19">
            <path d="M282.02,288.51c.58-1.44,2.54-2.15,3.97-2.7,1.79-.69,3.58-1.35,5.38-2.02,4.26-1.57,8.53-3.11,12.8-4.64,1.02-.37,2.04-.73,3.06-1.1.45-.16.26-.89-.2-.72-7.21,2.58-14.45,5.09-21.57,7.89-1.58.62-3.48,1.4-4.16,3.09-.18.45.55.64.72.2h0Z"/>
          </g>
          <path class="st11" d="M308.69,257.1c.11-6.48,1.28-12.88,3.46-18.98.16-.46-.56-.65-.72-.2-2.2,6.16-3.38,12.64-3.49,19.18,0,.48.74.48.75,0h0Z"/>
        </g>
      </g>
      <g>
        <g>
          <path class="st30" d="M250.08,299.57h-53.93v-9.06h53.93c1.11,3.02,1.11,6.04,0,9.06Z"/>
          <path class="st23" d="M225.1,298.79h-28.95v-7.51h28.95c.58,2.5.58,5.01,0,7.51Z"/>
          <path class="st9" d="M226.49,290.51c.56,2.84.59,5.85,0,9.06h23.59c1.11-3.02,1.11-6.04,0-9.06h-23.59Z"/>
          <g class="st19">
            <path d="M196.52,296.66h28.85c.1,0,.1-.15,0-.15h-28.85c-.1,0-.1.15,0,.15h0Z"/>
          </g>
          <g class="st19">
            <path d="M196.38,294.27h28.99c.1,0,.1-.15,0-.15h-28.99c-.1,0-.1.15,0,.15h0Z"/>
          </g>
        </g>
        <g>
          <path class="st21" d="M233.26,293.92h1.1l-.6,3.01h1.85l-.18.87h-2.95l.78-3.89Z"/>
          <path class="st21" d="M238.71,297.05h-1.66l-.45.76h-1.16l2.49-3.89h1.08l.94,3.89h-1.09l-.16-.76ZM238.54,296.24l-.26-1.26-.74,1.26h1Z"/>
          <path class="st21" d="M246.93,293.92l-2.04,3.89h-1.18l-.28-2.34-1.24,2.34h-1.18l-.48-3.89h1.08l.3,2.48,1.31-2.48h1.02l.28,2.52,1.32-2.52h1.09Z"/>
        </g>
      </g>
    </g>
  </g>
  <g id="Table">
    <g id="freepik--Desk--inject-2">
      <polygon class="st28" points="317.52 434.36 312.09 434.36 304.86 307.47 317.52 307.47 317.52 434.36"/>
      <polygon class="st28" points="369.78 434.36 375.22 434.36 368 307.47 355.34 307.47 369.78 434.36"/>
      <rect class="st28" x="82.9" y="299.49" width="296.42" height="9.51"/>
      <rect class="st8" x="292.57" y="299.49" width="86.76" height="9.51"/>
      <polygon class="st28" points="88.34 435.88 82.9 435.88 90.13 309 102.78 309 88.34 435.88"/>
      <polygon class="st28" points="144.56 435.88 149.99 435.88 157.22 309 144.56 309 144.56 435.88"/>
      <g>
        <rect class="st30" x="133.4" y="282.51" width="53.99" height="16.8"/>
        <rect class="st6" x="133.4" y="282.51" width="53.99" height="16.8"/>
        <rect class="st6" x="133.4" y="282.51" width="41.66" height="16.8"/>
        <polygon class="st7" points="175.06 282.51 133.4 282.51 133.4 284.23 174.12 284.23 175.06 282.51"/>
        <polygon class="st7" points="187.39 288.41 133.4 287.83 133.4 287.38 187.39 287.38 187.39 288.41"/>
        <polygon class="st7" points="133.4 290.14 187.39 293.18 187.39 292.72 133.4 289.11 133.4 290.14"/>
        <polygon class="st7" points="133.4 296.81 187.39 295.57 187.39 295.13 133.4 295.78 133.4 296.81"/>
      </g>
      <polygon class="st8" points="89.91 312.7 89.91 309 102.78 309 102.36 312.7 89.91 312.7"/>
      <polygon class="st8" points="144.56 312.7 144.56 309 157.22 309 157 312.7 144.56 312.7"/>
      <polygon class="st8" points="305.16 312.7 304.95 309 317.52 309 317.52 312.7 305.16 312.7"/>
      <polygon class="st8" points="355.89 312.7 355.51 309 368.09 309 368.33 312.7 355.89 312.7"/>
    </g>
  </g>
  <g id="Character_1">
    <g id="freepik--character-1--inject-2">
      <g>
        <path class="st34" d="M93.34,213.6c.32,6.85-.21,19.24-5.53,22.99,0,0,.82,7.02,13.19,8.87,13.59,2.02,7.51-5.79,7.51-5.79-7.16-2.87-6.15-8.36-4.08-13.33l-11.09-12.74Z"/>
        <path class="st34" d="M90.19,207.6c1.9,8.92,2.56,14.24,7.8,18.19,7.89,5.94,18.4.15,19.2-9.17.72-8.39-2.5-21.58-11.86-23.85-6.68-1.65-13.43,2.42-15.08,9.1-.46,1.88-.49,3.84-.06,5.73Z"/>
        <path class="st11" d="M109.41,208.54c4.27-.33,4.01-2.3,3.06-3.74-.96-1.45-2.12-6.65-2.12-6.65,0,0,5.93,1.57,4.71-4.11-1.22-5.68-9.23-12.87-16.22-8.46-13.94-2.3-18.5,3.33-16.32,8.53-11.07,4.9-3.08,14.81,1.33,14.81-3.93,3.5,1.94,8.55,11.45,14.22,6.96-8.39,17.23-6.14,14.12-14.59Z"/>
        <path class="st11" d="M100.8,188.42c-.29,0-.57-.13-.77-.34-3.3-3.32-8.12-4.63-12.64-3.45-.58.14-1.17-.22-1.31-.81-.14-.58.22-1.17.81-1.31,5.28-1.35,10.88.19,14.73,4.05.42.42.42,1.11,0,1.53-.22.21-.51.33-.82.32Z"/>
        <path class="st11" d="M86.38,218.82c-.29,0-.57-.11-.77-.32-3.07-3.09-4.35-5.51-3.96-7.62.37-1.62,1.53-2.94,3.09-3.53.54-.26,1.19-.03,1.45.52s.03,1.19-.52,1.45c-1.14.54-1.75,1.18-1.88,1.93-.13.75.3,2.63,3.36,5.7.43.42.43,1.11,0,1.54h0c-.21.21-.48.32-.77.32Z"/>
        <path class="st34" d="M104.17,207.84c.73,2.15,2.14,4,4.03,5.27,2.49,1.64,4.18-.22,3.85-2.9-.29-2.43-1.95-6.2-4.62-6.78-2.68-.58-4.09,1.82-3.25,4.42Z"/>
      </g>
      <g>
        <g>
          <path class="st34" d="M149.39,268.4c.1-.26,4.66-2.15,4.66-2.15l2.02,4.69-3.91,2.28-2.77-4.82Z"/>
          <path class="st34" d="M152.6,265.74s.31-2.92,2.22-4.42c1.91-1.5,3.03-3.21,4.52-4.23,1.49-1.02.87,1.34.28,2.53-.59,1.19-1.24,2.54-.28,2.84.96.3,9.43-1.61,10.72-1.05,1.29.56.02,1.3.02,1.3,0,0,2.07-.41,2.45.37.1.2,0,.83-.91,1.17-2.05.75-6.45,2.1-6.45,2.1.25-.08,5.79-1.37,6.65-1.45,1.12-.11,1.7.41,1.74,1.06.06.93-6.76,2.75-6.99,3.03,0,0,3.89-1.18,4.74-.35.85.84-1.55,1.71-3.82,2.09-2.08.34-6.07,1.55-8.22,1.69-2.65.17-4.46-.31-5.64-2.5-1.17-2.19-1.04-4.17-1.04-4.17Z"/>
        </g>
        <path class="st30" d="M86.14,246.86l-.95,1.47-1.02,1.61c-.66,1.08-1.3,2.18-1.95,3.29-1.26,2.22-2.49,4.47-3.62,6.76-2.27,4.5-4.18,9.17-5.7,13.97-.37,1.18-.69,2.36-1.02,3.55l-.42,1.78-.17.89-.09.45c0,.14-.06.34-.06.3s-.08,0-.18-.27c-.11-.24-.28-.44-.49-.59-.17-.1-.2,0-.11.09.21.19.45.35.7.48.87.43,1.79.74,2.74.94,1.15.27,2.32.48,3.5.62,2.43.32,5.1.47,7.6.6h.25c1.97.1,3.49,1.79,3.39,3.76-.08,1.44-1.01,2.7-2.37,3.18-2.81,1.01-5.72,1.73-8.68,2.15-3.31.54-6.69.45-9.97-.25-1.06-.26-2.08-.64-3.06-1.13-1.23-.62-2.34-1.46-3.28-2.47-1.1-1.2-1.91-2.62-2.38-4.18-.4-1.4-.54-2.87-.42-4.32,0-.39,0-.53.06-.72l.07-.56.13-1.14c.11-.74.21-1.5.34-2.24.25-1.49.54-2.97.9-4.41,1.4-5.73,3.35-11.3,5.85-16.64,1.23-2.63,2.55-5.22,3.98-7.74.71-1.26,1.47-2.51,2.24-3.74.39-.62.78-1.23,1.2-1.85.42-.62.81-1.18,1.34-1.92,2.35-3.16,6.82-3.82,9.98-1.47,2.97,2.21,3.76,6.33,1.81,9.48l-.15.29Z"/>
        <path class="st27" d="M86.03,237.42c-.5-2.9-1.02-6.22,1.17-6.73,2.41-.56,14.86,1.1,18.79,4.08s1.92,8.15,1.92,8.15l-21.88-5.5Z"/>
        <path class="st30" d="M119.61,248.24c.47,10.27,0,30.65-6.97,61.49h-46.09c-.29-6.41,6.33-34.05,5.76-64.42-.12-6.34,4.92-11.57,11.26-11.69.06,0,.12,0,.19,0,.91,0,1.87,0,2.85.11,6.52.45,13.01,1.3,19.42,2.53,1.92.44,3.78.95,5.47,1.47,4.65,1.44,7.89,5.65,8.1,10.52Z"/>
        <path class="st0" d="M112.88,265.53c-.73,5.22-2.43,14.27,3.68,24.28.69-4.15,1.25-8.03,1.71-11.66l-5.39-12.62Z"/>
        <path class="st30" d="M150.4,266.58c-1.56.75-7.29,4.63-8.82,5.44l-4.59,2.42c-1.34.73-2.7,1.37-4.04,2.05-.91-1.33-1.75-2.72-2.49-4.15-1.54-2.86-2.97-5.93-4.24-9.09-1.27-3.16-2.49-6.39-3.59-9.67-.59-1.64-1.1-3.31-1.61-4.94-.51-1.63-1.04-3.37-1.47-4.87l-.06-.18c-1.02-3.81-4.93-6.07-8.73-5.06-3.81,1.02-6.07,4.93-5.05,8.73.52,2,1,3.77,1.54,5.57.54,1.8,1.14,3.6,1.76,5.38,1.25,3.57,2.63,7.11,4.23,10.61,1.58,3.57,3.41,7.02,5.45,10.34,2.15,3.61,4.78,6.93,7.8,9.86l.4.38c1.92,1.82,4.81,2.14,7.07.78,1.72-1.04,3.34-2.16,4.87-3.32,1.53-1.16,3-2.37,4.38-3.66,1.39-1.28,2.72-2.59,4-3.96,1.29-1.38,5.7-4.63,6.84-6.14l-3.65-6.52Z"/>
        <path class="st0" d="M72.3,253.53c-.01.48-.34,16.69-1.11,18.68h-4.65l5.75-18.68Z"/>
        <path class="st30" d="M66.47,245.1c1.84-6.75,6.91-12.44,13.43-15,.44-.17.25-.9-.2-.72-6.76,2.66-12.04,8.51-13.95,15.53-.13.47.6.67.72.2h0Z"/>
      </g>
      <g>
        <path class="st30" d="M129.41,423.42c.73.08,1.46-.12,2.04-.56.22-.3.22-.72,0-1.02-.14-.24-.37-.41-.64-.47-1.25-.3-3.64,1.34-3.74,1.41-.06.05-.09.13-.08.2.01.08.07.14.15.15.74.18,1.51.27,2.27.29ZM130.49,421.77c.08-.01.17-.01.25,0,.16.03.3.13.38.28.18.34.07.48,0,.52-.37.49-2.13.49-3.41.28.82-.55,1.75-.92,2.72-1.07h.06Z"/>
        <path class="st30" d="M127.18,423.18h.09c.9-.49,2.62-2.37,2.44-3.33-.06-.31-.33-.54-.65-.54-.31-.04-.63.06-.87.26-1.02.82-1.21,3.3-1.21,3.4,0,.08.03.15.09.19.04.01.07.02.11.01ZM128.92,419.69h.09c.27,0,.3.15.31.2.1.57-1.02,2.04-1.89,2.67.06-.98.42-1.92,1.02-2.7.13-.11.3-.17.47-.17Z"/>
        <polygon class="st34" points="119.3 422.98 127.91 422.98 132.24 403.02 123.63 403.02 119.3 422.98"/>
        <path class="st11" d="M128.52,421.98h-9.67c-.35,0-.66.24-.73.59l-1.7,7.62c-.15.68.28,1.36.96,1.51.1.02.2.03.3.03,3.38-.06,5.02-.25,9.28-.25,2.62,0,5.97.27,9.59.27s4.08-3.58,2.61-3.89c-6.63-1.46-7.13-3.45-9.22-5.37-.39-.33-.89-.51-1.41-.5Z"/>
        <path d="M98.83,309.73s47.8,14.5,48.98,33.7c2.17,35.36-16.59,73.75-16.59,73.75l-13.07-.63s6.48-22.56,8.25-54.59c2.21-40.26-73.91.94-59.83-52.23h32.28Z"/>
      </g>
      <g>
        <g>
          <path class="st30" d="M183.03,423.42c1.1,0,2.17-.15,2.53-.64.19-.27.19-.63,0-.9-.14-.24-.37-.41-.64-.48-1.44-.39-4.44,1.32-4.58,1.41-.07.04-.11.12-.09.2.01.08.07.15.15.17.87.15,1.75.23,2.63.23ZM184.4,421.74c.13,0,.26.02.39.05.17.03.32.14.41.29.14.25.09.38,0,.45-.41.56-2.59.57-4.19.35,1.06-.6,2.23-.98,3.43-1.13h-.04Z"/>
          <path class="st30" d="M180.43,423.18h.08c1.02-.46,3.11-2.32,2.95-3.3,0-.22-.19-.51-.75-.57-.41-.04-.82.08-1.13.35-1.1.91-1.34,3.23-1.35,3.32,0,.07.03.14.09.18.03.02.07.03.11.02ZM182.53,419.69h.12c.37,0,.39.18.4.22.09.59-1.3,2.04-2.37,2.69.1-.98.5-1.91,1.14-2.66.2-.17.45-.26.71-.25Z"/>
          <polygon class="st34" points="170.63 422.98 179.25 422.98 177.61 403.02 168.99 403.02 170.63 422.98"/>
          <path class="st11" d="M179.26,421.98h-9.41c-.34-.01-.63.25-.65.59l-.56,7.62c-.03.82.61,1.51,1.44,1.54.01,0,.02,0,.03,0,3.38-.06,8.26-.25,12.53-.25,4.98,0,5.5.27,11.35.27,3.54,0,3.98-3.58,2.46-3.89-6.95-1.48-8.65-1.64-15.01-5.23-.66-.4-1.4-.62-2.17-.64Z"/>
        </g>
        <path class="st11" d="M112.64,309.73s61.81,4.08,64.26,36.88c2.8,37.71,3.32,70.57,3.32,70.57l-12.52.17s-6.57-31.54-12.22-64.79c-1.7-9.96-22.82-11.67-42.8-12.85-17.22-1.02-30.45-2.04-31.9-21.12l.22-8.87h31.63Z"/>
      </g>
      <g>
        <path class="st30" d="M109.86,337l-8.65-58.77c-.48-3.29-3.3-5.73-6.62-5.73h-51.05c-3.7,0-6.7,3-6.7,6.7,0,.33.02.65.07.98l8.36,56.83h0c0,2.75,2.23,4.97,4.97,4.97h93.07c0-2.75-2.23-4.97-4.97-4.97h-28.47Z"/>
        <path class="st4" d="M109.86,337l-8.65-58.77c-.48-3.29-3.3-5.73-6.62-5.73h-51.05c-3.7,0-6.7,3-6.7,6.7,0,.33.02.65.07.98l8.36,56.83h0c0,2.75,2.23,4.97,4.97,4.97h93.07c0-2.75-2.23-4.97-4.97-4.97h-28.47Z"/>
        <path class="st3" d="M94.58,272.5h-51.05c-3.7,0-6.7,3-6.7,6.7,0,.33.02.65.07.98l8.36,56.83c0,2.75,2.23,4.97,4.97,4.97h54.14l-9.79-69.48Z"/>
        <polygon class="st30" points="45.92 432.48 43.03 432.48 50.25 341.98 53.14 341.98 45.92 432.48"/>
        <polygon class="st6" points="45.92 432.48 43.03 432.48 50.25 341.98 53.14 341.98 45.92 432.48"/>
        <polygon class="st30" points="94.99 432.48 92.11 432.48 99.33 341.98 102.22 341.98 94.99 432.48"/>
        <polygon class="st6" points="94.99 432.48 92.11 432.48 99.33 341.98 102.22 341.98 94.99 432.48"/>
        <polygon class="st30" points="99.43 432.48 96.54 432.48 89.32 341.98 92.21 341.98 99.43 432.48"/>
        <polygon class="st2" points="99.43 432.48 96.54 432.48 89.32 341.98 92.21 341.98 99.43 432.48"/>
        <polygon class="st30" points="148.51 432.48 145.62 432.48 138.4 341.98 141.28 341.98 148.51 432.48"/>
        <polygon class="st2" points="148.51 432.48 145.62 432.48 138.4 341.98 141.28 341.98 148.51 432.48"/>
      </g>
    </g>
  </g>
</svg>